<?xml version="1.0" ?><svg data-name="Layer 3" id="Layer_3" viewBox="0 0 64 64" xmlns="http://www.w3.org/2000/svg"><title/><path d="M17,15a4,4,0,0,0,4-4V3H13v8A4,4,0,0,0,17,15Z"/><path d="M50.67,51.52a1,1,0,0,1-1.34,0,2,2,0,0,0-2.66,0,1,1,0,0,1-1.34,0,2,2,0,0,0-2.66,0,1,1,0,0,1-1.34,0,2,2,0,0,0-2.66,0,1,1,0,0,1-1.34,0A2,2,0,0,0,36,51a2,2,0,0,0,0,4H52a2,2,0,0,0,0-4A2,2,0,0,0,50.67,51.52Z"/><path d="M5,16.65V51H7V26a1,1,0,0,1,1-1H24a1,1,0,0,1,1,1V51h7.56A4,4,0,0,1,36,49a3.94,3.94,0,0,1,2,.55,4,4,0,0,1,4,0,4,4,0,0,1,4,0,4,4,0,0,1,4,0A3.94,3.94,0,0,1,52,49a4,4,0,0,1,3.44,2H59V16.65a6,6,0,0,1-7-2.34,6,6,0,0,1-10,0,6,6,0,0,1-10,0,6,6,0,0,1-10,0,6,6,0,0,1-10,0,6,6,0,0,1-7,2.34ZM42,46.41l-1.29,1.3-1.42-1.42L40.59,45a1.42,1.42,0,0,0,0-2L40,42.41a3.4,3.4,0,0,1,0-4.82l1.29-1.3,1.42,1.42L41.41,39a1.42,1.42,0,0,0,0,2l.59.59a3.4,3.4,0,0,1,0,4.82Zm6,0-1.29,1.3-1.42-1.42L46.59,45a1.42,1.42,0,0,0,0-2L46,42.41a3.4,3.4,0,0,1,0-4.82l1.29-1.3,1.42,1.42L47.41,39a1.42,1.42,0,0,0,0,2l.59.59a3.4,3.4,0,0,1,0,4.82ZM29,22a1,1,0,0,1,1-1H56a1,1,0,0,1,1,1V42a1,1,0,0,1-1,1H50.75V41H55V23H31V41h6v2H30a1,1,0,0,1-1-1Z"/><path d="M27,15a4,4,0,0,0,4-4V3H23v8A4,4,0,0,0,27,15Z"/><path d="M47,15a4,4,0,0,0,4-4V3H43v8A4,4,0,0,0,47,15Z"/><path d="M37,15a4,4,0,0,0,4-4V3H33v8A4,4,0,0,0,37,15Z"/><path d="M53,3v8a4,4,0,0,0,8,0V3Z"/><path d="M61,55V53H56a3.91,3.91,0,0,1-.56,2Z"/><path d="M36,61H52a5,5,0,0,0,4.9-4H31.1A5,5,0,0,0,36,61Z"/><path d="M23,51V27H9V51ZM11,33h2v6H11Z"/><path d="M32.56,55A3.91,3.91,0,0,1,32,53H3v2Z"/><path d="M7,15a4,4,0,0,0,4-4V3H3v8A4,4,0,0,0,7,15Z"/></svg>